<?xml version="1.0" standalone="no"?>
 <!DOCTYPE svg PUBLIC "-//W3C//DTD SVG 1.1//EN" 
 "http://www.w3.org/Graphics/SVG/1.1/DTD/svg11.dtd"> 
<svg
  xmlns:svg="http://www.w3.org/2000/svg"
  xmlns="http://www.w3.org/2000/svg"
  xmlns:xlink="http://www.w3.org/1999/xlink"
  version="1.1"
  width="7.099300cm" height="12.857480cm" viewBox="0 0 27950 50620">
<title>SVG Picture created as panel-Edge_Cuts.svg date 2020/10/07 07:09:07 </title>
  <desc>Picture generated by PCBNEW </desc>
<g style="fill:#000000; fill-opacity:1;stroke:#000000; stroke-opacity:1;
stroke-linecap:round; stroke-linejoin:round;"
 transform="translate(0 0) scale(1 1)">
</g>
<g style="fill:#000000; fill-opacity:0.0; 
stroke:#000000; stroke-width:-0.000393701; stroke-opacity:1; 
stroke-linecap:round; stroke-linejoin:round;">
</g>
<g style="fill:#000000; fill-opacity:0.0; 
stroke:#000000; stroke-width:39.3701; stroke-opacity:1; 
stroke-linecap:round; stroke-linejoin:round;">
<circle cx="16991.1" cy="35075.3" r="1299.21" /> 
<circle cx="10275.6" cy="41968.5" r="1574.8" /> 
<path d="M26060 7816
L23917 5255
" />
<circle cx="10298.2" cy="35075.3" r="1299.21" /> 
<path d="M21618.2 6728.83 A322.858 322.858 0.0 0 0 21597.2 7223.03" />
<circle cx="3225.45" cy="9038.91" r="1299.21" /> 
<path d="M23917.3 5255.91 A322.858 322.858 0.0 0 0 23423.1 5234.92" />
</g>
<g style="fill:#000000; fill-opacity:0.0; 
stroke:#000000; stroke-width:59.0551; stroke-opacity:1; 
stroke-linecap:round; stroke-linejoin:round;">
<path d="M13149 21549
L25550 21549
" />
</g>
<g style="fill:#000000; fill-opacity:0.0; 
stroke:#000000; stroke-width:39.3701; stroke-opacity:1; 
stroke-linecap:round; stroke-linejoin:round;">
<circle cx="12677.2" cy="15724.4" r="1299.21" /> 
<path d="M23756.4 9799.14 A322.858 322.858 0.0 0 0 24250.6 9820.12" />
<circle cx="3605.26" cy="41965" r="1574.8" /> 
<circle cx="23035.4" cy="17086.6" r="1299.21" /> 
<path d="M59 19
L19 50610
" />
</g>
<g style="fill:#000000; fill-opacity:0.0; 
stroke:#000000; stroke-width:59.0551; stroke-opacity:1; 
stroke-linecap:round; stroke-linejoin:round;">
<path d="M25728 29724
L25728 30767
" />
<path d="M12972 22770.4 A177.165 177.165 0.0 0 0 13149.2 22947.6" />
<path d="M25550.8 22947.6 A177.165 177.165 0.0 0 0 25727.9 22770.4" />
<path d="M25728.3 29724.4 A177.165 177.165 0.0 0 0 25551.2 29547.2" />
</g>
<g style="fill:#000000; fill-opacity:0.0; 
stroke:#000000; stroke-width:39.3701; stroke-opacity:1; 
stroke-linecap:round; stroke-linejoin:round;">
<path d="M24250 9820
L26039 8310
" />
<circle cx="12677.2" cy="9031.5" r="1299.21" /> 
</g>
<g style="fill:#000000; fill-opacity:0.0; 
stroke:#000000; stroke-width:59.0551; stroke-opacity:1; 
stroke-linecap:round; stroke-linejoin:round;">
<path d="M8956 29724
L8956 30767
" />
<path d="M25551.2 30944.9 A177.165 177.165 0.0 0 0 25728.3 30767.7" />
<path d="M25551 30944
L9133 30944
" />
<path d="M25727.9 21727.1 A177.165 177.165 0.0 0 0 25550.8 21550" />
<path d="M25727 21727
L25727 22770
" />
</g>
<g style="fill:#000000; fill-opacity:0.0; 
stroke:#000000; stroke-width:39.3701; stroke-opacity:1; 
stroke-linecap:round; stroke-linejoin:round;">
<circle cx="16988.2" cy="41948.8" r="1574.8" /> 
<circle cx="17401.6" cy="15724.4" r="1299.21" /> 
<circle cx="3605.26" cy="35075.3" r="1299.21" /> 
</g>
<g style="fill:#000000; fill-opacity:0.0; 
stroke:#000000; stroke-width:59.0551; stroke-opacity:1; 
stroke-linecap:round; stroke-linejoin:round;">
<path d="M13149.2 21550 A177.165 177.165 0.0 0 0 12972 21727.1" />
<path d="M12972 21727
L12972 22770
" />
</g>
<g style="fill:#000000; fill-opacity:0.0; 
stroke:#000000; stroke-width:39.3701; stroke-opacity:1; 
stroke-linecap:round; stroke-linejoin:round;">
<path d="M27893 50610
L27933 19
" />
<circle cx="3228.35" cy="15724.4" r="1299.21" /> 
</g>
<g style="fill:#000000; fill-opacity:0.0; 
stroke:#000000; stroke-width:59.0551; stroke-opacity:1; 
stroke-linecap:round; stroke-linejoin:round;">
<path d="M8956.69 30767.7 A177.165 177.165 0.0 0 0 9133.86 30944.9" />
</g>
<g style="fill:#000000; fill-opacity:0.0; 
stroke:#000000; stroke-width:39.3701; stroke-opacity:1; 
stroke-linecap:round; stroke-linejoin:round;">
<path d="M23423 5234
L21618 6728
" />
<circle cx="23661.4" cy="41929.1" r="1574.8" /> 
<path d="M21597 7223
L23756 9799
" />
<path d="M26039.3 8310.54 A322.858 322.858 0.0 0 0 26060.3 7816.34" />
</g>
<g style="fill:#000000; fill-opacity:0.0; 
stroke:#000000; stroke-width:59.0551; stroke-opacity:1; 
stroke-linecap:round; stroke-linejoin:round;">
<path d="M9133 29547
L25551 29547
" />
<path d="M9133.86 29547.2 A177.165 177.165 0.0 0 0 8956.69 29724.4" />
</g>
<g style="fill:#000000; fill-opacity:0.0; 
stroke:#000000; stroke-width:39.3701; stroke-opacity:1; 
stroke-linecap:round; stroke-linejoin:round;">
<circle cx="23681.1" cy="35078.7" r="1299.21" /> 
<circle cx="17401.6" cy="9031.5" r="1299.21" /> 
<path d="M27893 50610
L19 50610
" />
<circle cx="23035.4" cy="12362.2" r="1299.21" /> 
<path d="M59 19
L27933 19
" />
<circle cx="7952.76" cy="15724.4" r="1299.21" /> 
</g>
<g style="fill:#000000; fill-opacity:0.0; 
stroke:#000000; stroke-width:59.0551; stroke-opacity:1; 
stroke-linecap:round; stroke-linejoin:round;">
<path d="M25550 22947
L13149 22947
" />
</g>
<g style="fill:#000000; fill-opacity:0.0; 
stroke:#000000; stroke-width:39.3701; stroke-opacity:1; 
stroke-linecap:round; stroke-linejoin:round;">
<circle cx="7952.76" cy="9031.5" r="1299.21" /> 
<g >
</g>
</g> 
</svg>
